<svg width="83" height="83" viewBox="0 0 83 83" fill="none" xmlns="http://www.w3.org/2000/svg">
<path d="M0.859306 53.5427C-6.16149 30.1404 31.7016 1.98502 46.7354 19.4287C56.6772 30.9618 55.941 58.6047 41.5275 69.3227C27.1141 80.0407 5.50028 69.0175 0.859306 53.5427Z" fill="url(#paint0_linear_1143_86)"/>
<path d="M0.859306 53.5427C-6.16149 30.1404 31.7016 1.98502 46.7354 19.4287C56.6772 30.9618 55.941 58.6047 41.5275 69.3227C27.1141 80.0407 5.50028 69.0175 0.859306 53.5427Z" fill="white" fill-opacity="0.5"/>
<path fill-rule="evenodd" clip-rule="evenodd" d="M29.6821 30.6916C24.4621 31.1482 20.6007 35.7501 21.0574 40.97L21.9169 50.7944C22.3736 56.0143 26.9755 59.8757 32.1954 59.419L62.5394 56.7643C67.7594 56.3076 71.6208 51.7058 71.1641 46.4858L70.3046 36.6614C69.8479 31.4415 65.246 27.5801 60.0261 28.0368L29.6821 30.6916ZM24.5458 40.6648C24.2577 37.3714 26.6939 34.4681 29.9873 34.1799L60.3313 31.5252C63.6247 31.237 66.5281 33.6733 66.8162 36.9666L67.6757 46.791C67.9638 50.0844 65.5276 52.9878 62.2342 53.2759L31.8902 55.9307C28.5968 56.2188 25.6934 53.7826 25.4053 50.4892L24.5458 40.6648Z" fill="#21201F"/>
<path d="M71.4019 37.3799C72.5351 37.2808 73.5342 38.1191 73.6333 39.2523L73.9924 43.3563C74.0915 44.4895 73.2532 45.4886 72.12 45.5878L71.4019 37.3799Z" fill="#21201F"/>
<defs>
<linearGradient id="paint0_linear_1143_86" x1="51.8561" y1="27.8978" x2="1.22539" y2="55.2356" gradientUnits="userSpaceOnUse">
<stop stop-color="#FF5C4D"/>
<stop offset="0.25" stop-color="#EB469F"/>
<stop offset="0.72" stop-color="#8341EF"/>
<stop offset="1" stop-color="#3F68F9"/>
</linearGradient>
</defs>
</svg>
